<svg width="43" height="31" viewBox="0 0 43 31" fill="none" xmlns="http://www.w3.org/2000/svg">
<path d="M42.5417 15.46L12.5417 30.92C12.5417 30.92 19.0417 23.6492 12.5417 18.1492C11.7686 16.9896 17.0417 15.6492 17.0417 15.6492C17.0417 15.6492 13.0417 10.1286 12.5417 4.1492C12.4412 2.94761 12.5417 -1.59385e-06 12.5417 -1.59385e-06L42.5417 15.46Z" fill="black"/>
<rect x="4" y="10.7755" width="21.875" height="9.62217" fill="black"/>
<path d="M42.5417 15.46L9.42817 30.92C9.42817 30.92 16.6028 23.6492 9.42817 18.1492C8.57487 16.9896 14.3952 15.6492 14.3952 15.6492C14.3952 15.6492 9.98007 10.1286 9.42818 4.1492C9.31727 2.94761 9.42818 -1.59385e-06 9.42818 -1.59385e-06L42.5417 15.46Z" fill="#EFEDEA"/>
<rect y="10.7755" width="24.1453" height="9.62217" fill="#EFEDEA"/>
</svg>
