<svg width="267" height="235" viewBox="0 0 267 235" fill="none" xmlns="http://www.w3.org/2000/svg">
<g transform="translate(13.35 11.75) scale(0.9)">
<path d="M236.865 117.5C236.865 182.393 183.841 235 118.433 235C53.0241 235 0 182.393 0 117.5C0 52.6065 53.0241 0 118.433 0C183.841 0 236.865 52.6065 236.865 117.5Z" fill="black"/>
<path d="M266.933 117.5C266.933 182.393 213.909 235 148.5 235C83.0914 235 30.0673 182.393 30.0673 117.5C30.0673 52.6065 83.0914 0 148.5 0C213.909 0 266.933 52.6065 266.933 117.5Z" fill="black"/>
<path d="M112.359 0H148.5V235H112.359V0Z" fill="black"/>
<path d="M228 117.5C228 180.46 176.96 231.5 114 231.5C51.0395 231.5 0 180.46 0 117.5C0 54.5395 51.0395 3.5 114 3.5C176.96 3.5 228 54.5395 228 117.5Z" fill="#EFEDEA"/>
</g>
</svg>
