<svg width="153" height="141" viewBox="0 0 153 141" fill="none" xmlns="http://www.w3.org/2000/svg">
<path d="M56.7377 140.5C56.7377 140.5 95.4639 60 153 76C140.829 56.5 70.5 55 74 43C77.5 31 5.5 3 5.5 3C5.5 3 45.673 46.5 32.1188 70.25C18.5647 94.0001 56.7377 140.5 56.7377 140.5Z" fill="black"/>
<path d="M49.2377 140.5C49.2377 140.5 87.9639 60 145.5 76C133.329 56.5 60.3484 58 67.4943 42.5C74.6402 27 0 0 0 0C0 0 38.173 46.5 24.6188 70.25C11.0647 94.0001 49.2377 140.5 49.2377 140.5Z" fill="#D9D9D9"/>
</svg>
